<?xml version="1.0" encoding="utf-8"?>
<!-- Generator: Adobe Illustrator 16.0.0, SVG Export Plug-In . SVG Version: 6.00 Build 0)  -->
<!DOCTYPE svg PUBLIC "-//W3C//DTD SVG 1.1//EN" "http://www.w3.org/Graphics/SVG/1.1/DTD/svg11.dtd">
<svg version="1.1" id="Layer_1" xmlns="http://www.w3.org/2000/svg" xmlns:xlink="http://www.w3.org/1999/xlink" x="0px" y="0px"
	 width="271.5px" height="85px" viewBox="0 0 271.5 85" enable-background="new 0 0 271.5 85" xml:space="preserve">
<g enable-background="new    ">
	<path d="M16.315,51.212c-0.061,0.364-0.106,0.728-0.136,1.091c-0.031,0.364-0.045,0.728-0.045,1.092
		c0,1.091,0.159,2.129,0.477,3.113c0.318,0.985,0.788,1.849,1.409,2.591c0.621,0.743,1.394,1.326,2.318,1.75
		c0.924,0.425,1.978,0.637,3.159,0.637c3.97,0,7.803-1.349,11.5-4.046c3.697-2.696,7.379-6.97,11.046-12.818l1.545,1.363
		c-2,3.334-4.031,6.145-6.091,8.433c-2.061,2.288-4.114,4.145-6.159,5.568c-2.045,1.425-4.053,2.454-6.023,3.091
		c-1.97,0.637-3.849,0.955-5.637,0.955c-1.303,0-2.682-0.183-4.136-0.546s-2.795-0.971-4.023-1.818s-2.243-1.984-3.045-3.409
		c-0.803-1.424-1.205-3.197-1.205-5.318c0-2.272,0.386-4.462,1.159-6.568c0.772-2.105,1.78-4.068,3.022-5.887
		c1.242-1.818,2.667-3.478,4.273-4.978c1.606-1.5,3.234-2.779,4.887-3.841c1.651-1.061,3.265-1.887,4.841-2.478
		s2.97-0.887,4.182-0.887c0.788,0,1.591,0.122,2.409,0.364c0.818,0.243,1.553,0.621,2.205,1.137
		c0.651,0.516,1.182,1.197,1.591,2.045c0.409,0.849,0.614,1.864,0.614,3.046c0,1.606-0.372,3.113-1.114,4.522
		c-0.743,1.409-1.735,2.713-2.977,3.909c-1.243,1.198-2.682,2.273-4.318,3.228c-1.637,0.955-3.349,1.766-5.137,2.432
		c-1.789,0.667-3.591,1.198-5.409,1.592S17.952,51.183,16.315,51.212z M16.679,49.258c2.03-0.212,3.939-0.637,5.728-1.273
		c1.788-0.636,3.424-1.416,4.909-2.341c1.484-0.924,2.811-1.932,3.978-3.022c1.166-1.091,2.144-2.197,2.932-3.318
		c0.788-1.121,1.394-2.197,1.818-3.228c0.424-1.03,0.636-1.954,0.636-2.772s-0.22-1.47-0.659-1.955
		c-0.44-0.484-0.962-0.728-1.568-0.728c-1.334,0-2.834,0.478-4.5,1.433c-1.667,0.954-3.333,2.272-5,3.954
		c-1.667,1.682-3.235,3.659-4.705,5.933C18.777,44.212,17.588,46.651,16.679,49.258z"/>
	<path d="M60.044,26.779c-0.243,0.318-0.477,0.682-0.705,1.091c-0.227,0.409-0.425,0.887-0.591,1.433
		c-0.167,0.545-0.25,1.197-0.25,1.954c0,0.637,0.159,1.5,0.477,2.591c0.318,1.091,0.659,2.341,1.023,3.75s0.705,2.94,1.023,4.592
		c0.318,1.651,0.477,3.356,0.477,5.113c0,2.576-0.349,4.849-1.045,6.818c-0.698,1.971-1.622,3.652-2.773,5.046
		c2.364-1.272,4.682-3.098,6.955-5.478c2.272-2.379,4.561-5.401,6.864-9.068l1.545,1.363c-1.303,2.152-2.781,4.281-4.432,6.387
		c-1.652,2.106-3.462,4-5.432,5.683c-1.971,1.682-4.091,3.045-6.364,4.091c-2.272,1.045-4.682,1.568-7.228,1.568
		c-2.272,0-4.189-0.539-5.75-1.614c-1.561-1.075-2.523-2.688-2.887-4.841l1.637-0.318c0,0.182,0.083,0.478,0.25,0.887
		c0.167,0.409,0.432,0.811,0.795,1.204c0.364,0.395,0.856,0.743,1.478,1.046c0.621,0.304,1.386,0.454,2.295,0.454
		c1.211,0,2.288-0.279,3.228-0.841c0.939-0.561,1.757-1.295,2.455-2.204c0.697-0.909,1.288-1.947,1.772-3.114
		c0.484-1.166,0.871-2.37,1.159-3.613c0.288-1.242,0.492-2.455,0.614-3.637c0.121-1.182,0.182-2.257,0.182-3.228
		c0-0.97-0.038-2.045-0.113-3.228c-0.076-1.182-0.159-2.311-0.25-3.386c-0.091-1.076-0.175-2.016-0.25-2.818
		c-0.076-0.803-0.114-1.326-0.114-1.568v-0.091c-0.394,0.425-0.864,1.045-1.409,1.863s-1.129,1.713-1.75,2.682
		c-0.622,0.971-1.243,1.955-1.864,2.955c-0.622,1-1.182,1.909-1.682,2.728s-0.909,1.493-1.227,2.022
		c-0.318,0.53-0.478,0.812-0.478,0.841l-1.636-1.272c0.03-0.03,0.409-0.682,1.136-1.955c0.728-1.272,1.689-2.886,2.887-4.841
		c1.197-1.954,2.553-4.121,4.068-6.5c1.515-2.379,3.075-4.689,4.682-6.933l1.818,1.5C60.483,26.166,60.286,26.461,60.044,26.779z"/>
	<path d="M97.409,32.438c0-0.969-0.387-1.734-1.159-2.295c-0.773-0.561-1.993-0.841-3.659-0.841c-1.364,0-2.735,0.295-4.114,0.886
		c-1.379,0.591-2.705,1.402-3.978,2.432c-1.273,1.031-2.462,2.259-3.568,3.683c-1.106,1.425-2.061,2.97-2.864,4.637
		c-0.803,1.667-1.439,3.432-1.909,5.295c-0.47,1.864-0.705,3.735-0.705,5.614c0,1.516,0.167,2.804,0.5,3.863
		c0.333,1.062,0.803,1.925,1.409,2.592c0.606,0.667,1.333,1.144,2.182,1.432c0.848,0.288,1.802,0.432,2.864,0.432
		c2.091,0,4.121-0.47,6.091-1.409c1.97-0.938,3.841-2.159,5.614-3.659c1.773-1.5,3.409-3.174,4.91-5.022
		c1.5-1.849,2.825-3.667,3.977-5.455l1.682,1.272c-1.637,2.758-3.379,5.175-5.228,7.251c-1.849,2.075-3.743,3.811-5.682,5.204
		c-1.939,1.395-3.909,2.439-5.909,3.137c-2,0.696-3.955,1.045-5.864,1.045c-1.516,0-2.962-0.227-4.341-0.682
		c-1.379-0.454-2.591-1.144-3.636-2.068c-1.045-0.924-1.879-2.113-2.5-3.568c-0.621-1.454-0.932-3.182-0.932-5.182
		c0-2.363,0.341-4.598,1.023-6.705c0.682-2.105,1.591-4.053,2.727-5.841c1.137-1.788,2.447-3.401,3.932-4.841
		c1.484-1.439,3.038-2.659,4.659-3.659c1.621-1,3.257-1.766,4.909-2.296c1.651-0.529,3.205-0.795,4.66-0.795
		c1.484,0,2.697,0.204,3.636,0.613c0.939,0.409,1.682,0.902,2.228,1.478c0.545,0.576,0.916,1.182,1.114,1.818
		c0.196,0.636,0.295,1.182,0.295,1.636c0,0.728-0.107,1.5-0.318,2.318c-0.212,0.818-0.508,1.568-0.886,2.25
		c-0.379,0.682-0.849,1.25-1.409,1.705c-0.561,0.454-1.175,0.682-1.841,0.682s-1.243-0.22-1.727-0.659
		c-0.485-0.438-0.728-0.992-0.728-1.659c0-0.029,0.023-0.212,0.068-0.545c0.045-0.334,0.189-0.689,0.432-1.068
		c0.242-0.379,0.614-0.72,1.114-1.023c0.5-0.302,1.205-0.454,2.114-0.454h0.545C97.318,33.5,97.409,32.984,97.409,32.438z"/>
	<path d="M131.683,45.894c-0.455,0.667-0.993,1.568-1.614,2.705c-0.622,1.136-1.341,2.363-2.159,3.682
		c-0.818,1.318-1.72,2.659-2.705,4.023c-0.985,1.363-2.062,2.591-3.228,3.682c-1.167,1.091-2.432,1.984-3.796,2.682
		c-1.363,0.697-2.818,1.046-4.364,1.046c-0.849,0-1.652-0.13-2.409-0.387c-0.758-0.258-1.424-0.659-2-1.204
		c-0.576-0.546-1.03-1.22-1.364-2.023c-0.333-0.803-0.5-1.75-0.5-2.841c0-1.484,0.296-3.038,0.887-4.659s1.28-3.189,2.068-4.705
		c0.788-1.515,1.575-2.901,2.363-4.159c0.788-1.257,1.364-2.265,1.728-3.022c0.364-0.757,0.545-1.409,0.545-1.955
		c0-0.394-0.129-0.742-0.386-1.045c-0.258-0.303-0.576-0.599-0.955-0.887c-0.379-0.287-0.773-0.591-1.182-0.909
		c-0.409-0.318-0.75-0.704-1.022-1.159c-0.758,1.213-1.531,2.439-2.318,3.683c-0.697,1.061-1.455,2.25-2.273,3.567
		c-0.818,1.318-1.606,2.614-2.364,3.887L103,44.621l9.728-15.228l1.318,0.682c-0.061,0.182-0.159,0.47-0.295,0.863
		c-0.136,0.395-0.205,0.818-0.205,1.273c0,0.333,0.053,0.658,0.159,0.977c0.105,0.318,0.325,0.614,0.659,0.887
		c1.211,1.091,2.166,1.932,2.864,2.522c0.696,0.591,1.205,1.062,1.522,1.409c0.318,0.349,0.515,0.637,0.591,0.864
		c0.076,0.227,0.114,0.522,0.114,0.886c0,0.364-0.061,0.804-0.182,1.318c-0.122,0.516-0.326,1.137-0.614,1.864
		c-0.289,0.727-0.682,1.584-1.182,2.568c-0.5,0.984-1.129,2.129-1.887,3.432c-0.455,0.788-0.902,1.584-1.341,2.387
		c-0.44,0.803-0.834,1.613-1.182,2.432c-0.349,0.818-0.629,1.637-0.841,2.454c-0.212,0.818-0.318,1.607-0.318,2.364
		c0,0.576,0.083,1.038,0.25,1.387c0.166,0.349,0.386,0.613,0.659,0.795c0.273,0.182,0.568,0.304,0.887,0.364
		c0.318,0.061,0.628,0.091,0.932,0.091c1,0,1.992-0.296,2.978-0.887c0.984-0.591,1.955-1.355,2.909-2.296
		c0.955-0.938,1.878-2.007,2.773-3.204c0.893-1.197,1.75-2.417,2.568-3.659c0.818-1.242,1.576-2.433,2.273-3.568
		c0.697-1.137,1.318-2.129,1.864-2.978L131.683,45.894z"/>
	<path d="M141.91,31.348c-0.395,0.788-0.947,1.826-1.658,3.114c-0.713,1.288-1.479,2.697-2.296,4.228
		c-0.818,1.53-1.652,3.136-2.5,4.818c-0.849,1.682-1.614,3.317-2.295,4.909c-0.682,1.591-1.235,3.084-1.659,4.477
		c-0.425,1.395-0.636,2.576-0.636,3.546c0,0.88,0.182,1.478,0.545,1.796s0.878,0.478,1.545,0.478c1.242,0,2.455-0.409,3.636-1.228
		s2.356-1.887,3.523-3.205c1.166-1.318,2.311-2.825,3.432-4.522s2.242-3.409,3.363-5.137l1.637,1.272
		c-0.879,1.576-1.871,3.258-2.977,5.046c-1.107,1.788-2.342,3.447-3.705,4.978s-2.863,2.796-4.5,3.796s-3.425,1.5-5.364,1.5
		c-1.818,0-3.212-0.546-4.182-1.637c-0.969-1.091-1.455-2.5-1.455-4.228c0-2.03,0.47-4.151,1.409-6.364
		c0.94-2.211,2.114-4.401,3.523-6.568c1.409-2.166,2.939-4.25,4.591-6.25c1.651-2,3.174-3.818,4.568-5.455L141.91,31.348z
		 M150.41,21.257c0,0.606-0.151,1.234-0.454,1.886c-0.304,0.652-0.689,1.235-1.159,1.75c-0.47,0.516-0.992,0.94-1.568,1.273
		c-0.576,0.334-1.152,0.5-1.727,0.5c-0.516,0-0.91-0.189-1.182-0.568c-0.273-0.379-0.41-0.841-0.41-1.387
		c0-0.484,0.092-1.061,0.273-1.728c0.182-0.666,0.454-1.295,0.818-1.886c0.363-0.591,0.803-1.099,1.318-1.523
		c0.514-0.424,1.105-0.636,1.772-0.636c0.636,0,1.182,0.243,1.636,0.728C150.184,20.15,150.41,20.682,150.41,21.257z"/>
	<path d="M156.139,24.075c0.303-0.516,0.84-1.409,1.613-2.683c0.773-1.272,1.682-2.682,2.728-4.228
		c1.046-1.545,2.182-3.098,3.409-4.659c1.227-1.561,2.432-2.886,3.613-3.978l2.046,1.228c-1.304,2.152-2.637,4.433-4,6.842
		c-1.364,2.409-2.712,4.901-4.046,7.478h14.818l-0.908,2.363h-15.137c-1.364,2.728-2.645,5.439-3.842,8.137s-2.25,5.272-3.159,7.728
		s-1.622,4.75-2.136,6.887c-0.516,2.137-0.773,3.993-0.773,5.568c0,1.97,0.455,3.387,1.363,4.25c0.91,0.863,2.03,1.296,3.364,1.296
		c1.182,0,2.394-0.356,3.637-1.068c1.242-0.712,2.462-1.614,3.659-2.705s2.333-2.287,3.409-3.591c1.075-1.303,2.03-2.53,2.864-3.682
		c0.832-1.151,1.521-2.159,2.067-3.023c0.546-0.863,0.879-1.401,1-1.613l1.683,1.272c-1.062,1.758-2.258,3.622-3.592,5.592
		s-2.811,3.795-4.432,5.477c-1.621,1.683-3.387,3.076-5.296,4.183c-1.909,1.105-3.97,1.659-6.182,1.659
		c-1.364,0-2.554-0.243-3.568-0.728c-1.016-0.485-1.872-1.159-2.568-2.022c-0.698-0.864-1.22-1.887-1.568-3.068
		s-0.522-2.47-0.522-3.864c0-0.909,0.145-2.196,0.432-3.863c0.288-1.667,0.78-3.644,1.477-5.933
		c0.697-2.287,1.629-4.855,2.797-7.704c1.166-2.849,2.643-5.91,4.432-9.183h-7.546l0.909-2.363H156.139z"/>
	<path d="M179.275,58.713c0,0.908-0.326,1.689-0.978,2.341s-1.447,0.977-2.386,0.977c-0.88,0-1.645-0.325-2.297-0.977
		c-0.651-0.651-0.977-1.433-0.977-2.341c0-0.879,0.325-1.644,0.977-2.296c0.652-0.651,1.417-0.978,2.297-0.978
		c0.938,0,1.734,0.326,2.386,0.978C178.949,57.069,179.275,57.834,179.275,58.713z"/>
	<path d="M191.094,51.212c-0.061,0.364-0.106,0.728-0.137,1.091c-0.03,0.364-0.045,0.728-0.045,1.092
		c0,1.091,0.159,2.129,0.477,3.113c0.318,0.985,0.788,1.849,1.41,2.591c0.621,0.743,1.393,1.326,2.318,1.75
		c0.924,0.425,1.977,0.637,3.158,0.637c3.971,0,7.803-1.349,11.501-4.046c3.696-2.696,7.379-6.97,11.046-12.818l1.545,1.363
		c-2,3.334-4.03,6.145-6.091,8.433c-2.062,2.288-4.114,4.145-6.159,5.568c-2.045,1.425-4.053,2.454-6.023,3.091
		c-1.97,0.637-3.848,0.955-5.637,0.955c-1.303,0-2.682-0.183-4.136-0.546s-2.796-0.971-4.022-1.818
		c-1.229-0.848-2.244-1.984-3.046-3.409c-0.803-1.424-1.204-3.197-1.204-5.318c0-2.272,0.386-4.462,1.158-6.568
		c0.773-2.105,1.78-4.068,3.023-5.887c1.242-1.818,2.666-3.478,4.272-4.978s3.234-2.779,4.887-3.841
		c1.651-1.061,3.265-1.887,4.841-2.478s2.97-0.887,4.182-0.887c0.788,0,1.592,0.122,2.41,0.364c0.818,0.243,1.553,0.621,2.204,1.137
		s1.183,1.197,1.591,2.045c0.409,0.849,0.613,1.864,0.613,3.046c0,1.606-0.371,3.113-1.113,4.522s-1.734,2.713-2.977,3.909
		c-1.244,1.198-2.683,2.273-4.318,3.228c-1.637,0.955-3.35,1.766-5.137,2.432c-1.789,0.667-3.592,1.198-5.41,1.592
		S192.73,51.183,191.094,51.212z M191.457,49.258c2.03-0.212,3.939-0.637,5.729-1.273c1.787-0.636,3.424-1.416,4.908-2.341
		c1.484-0.924,2.811-1.932,3.979-3.022c1.166-1.091,2.143-2.197,2.932-3.318c0.787-1.121,1.393-2.197,1.818-3.228
		c0.424-1.03,0.636-1.954,0.636-2.772s-0.22-1.47-0.659-1.955c-0.439-0.484-0.962-0.728-1.568-0.728c-1.334,0-2.834,0.478-4.5,1.433
		c-1.666,0.954-3.334,2.272-5,3.954c-1.667,1.682-3.235,3.659-4.705,5.933C193.556,44.212,192.367,46.651,191.457,49.258z"/>
	<path d="M242.005,51.667c-1.394,1.636-2.772,3.144-4.137,4.522c-1.363,1.38-2.72,2.562-4.068,3.546
		c-1.349,0.985-2.689,1.758-4.022,2.318c-1.334,0.561-2.682,0.841-4.046,0.841c-1.151,0-2.189-0.205-3.114-0.614
		c-0.924-0.408-1.727-0.984-2.408-1.727s-1.205-1.651-1.568-2.728c-0.363-1.075-0.546-2.28-0.546-3.614
		c0-2.091,0.462-4.242,1.387-6.454s2.091-4.364,3.5-6.455s2.97-4.075,4.683-5.955c1.711-1.878,3.34-3.545,4.886-5l1.954,1.364
		c-1.09,1.606-2.311,3.425-3.658,5.454c-1.35,2.031-2.622,4.13-3.818,6.296c-1.197,2.167-2.205,4.334-3.023,6.5
		c-0.818,2.167-1.227,4.175-1.227,6.023c0,1.242,0.234,2.303,0.704,3.182s1.37,1.318,2.704,1.318c1.455,0,3.053-0.575,4.797-1.728
		c1.742-1.151,3.529-2.651,5.363-4.5c1.833-1.849,3.666-3.932,5.5-6.25c1.833-2.318,3.568-4.659,5.205-7.023
		c1.637-2.363,3.129-4.621,4.477-6.772c1.349-2.151,2.447-3.985,3.297-5.501l3.317,1.637c-1.758,3.455-3.447,6.675-5.068,9.659
		c-1.621,2.985-3.062,5.667-4.318,8.046c-1.258,2.38-2.258,4.448-3,6.205c-0.743,1.758-1.114,3.152-1.114,4.182
		c0,0.425,0.092,0.773,0.273,1.046s0.469,0.409,0.863,0.409c1.121,0.03,2.356-0.455,3.705-1.455c1.348-1,2.712-2.257,4.091-3.772
		c1.379-1.515,2.728-3.174,4.046-4.978c1.318-1.803,2.508-3.492,3.568-5.068l1.637,1.272c-0.182,0.304-0.562,0.925-1.137,1.864
		c-0.576,0.939-1.289,2.016-2.137,3.228c-0.849,1.212-1.818,2.484-2.909,3.817c-1.091,1.334-2.243,2.554-3.454,3.66
		c-1.213,1.106-2.471,2.016-3.773,2.727c-1.303,0.712-2.591,1.068-3.863,1.068c-0.789,0-1.493-0.136-2.114-0.409
		c-0.621-0.272-1.144-0.636-1.567-1.091c-0.426-0.454-0.758-0.984-1-1.591c-0.244-0.605-0.364-1.242-0.364-1.909
		c0-0.788,0.128-1.651,0.386-2.591S241.52,52.728,242.005,51.667z"/>
</g>
</svg>
